solid OpenSCAD_Model
  facet normal 0 0 -1
    outer loop
      vertex -24 0 0
      vertex -23.4755 4.98988 0
      vertex -23.4755 -4.98988 0
    endloop
  endfacet
  facet normal 0 0 -1
    outer loop
      vertex -23.4755 -4.98988 0
      vertex -23.4755 4.98988 0
      vertex -21.9251 9.76168 0
    endloop
  endfacet
  facet normal 0 0 -1
    outer loop
      vertex -23.4755 -4.98988 0
      vertex -21.9251 9.76168 0
      vertex -19.4164 14.1068 0
    endloop
  endfacet
  facet normal 0 0 -1
    outer loop
      vertex -23.4755 -4.98988 0
      vertex -19.4164 14.1068 0
      vertex -16.0591 17.8355 0
    endloop
  endfacet
  facet normal 0 0 -1
    outer loop
      vertex -23.4755 -4.98988 0
      vertex -16.0591 17.8355 0
      vertex -12 20.7846 0
    endloop
  endfacet
  facet normal 0 0 -1
    outer loop
      vertex -23.4755 -4.98988 0
      vertex -12 20.7846 0
      vertex -7.41641 22.8254 0
    endloop
  endfacet
  facet normal 0 0 -1
    outer loop
      vertex -23.4755 -4.98988 0
      vertex -7.41641 22.8254 0
      vertex -2.50868 23.8685 0
    endloop
  endfacet
  facet normal 0 0 -1
    outer loop
      vertex -23.4755 -4.98988 0
      vertex -2.50868 23.8685 0
      vertex 2.50868 23.8685 0
    endloop
  endfacet
  facet normal 0 0 -1
    outer loop
      vertex -4.32624 13.3148 0
      vertex 2.50868 23.8685 0
      vertex 7.41641 22.8254 0
    endloop
  endfacet
  facet normal 0 0 -1
    outer loop
      vertex 1.4634 13.9233 0
      vertex 7.41641 22.8254 0
      vertex 12 20.7846 0
    endloop
  endfacet
  facet normal 0 0 -1
    outer loop
      vertex 4.32624 13.3148 0
      vertex 12 20.7846 0
      vertex 16.0591 17.8355 0
    endloop
  endfacet
  facet normal 0 0 -1
    outer loop
      vertex 9.36783 10.404 0
      vertex 16.0591 17.8355 0
      vertex 19.4164 14.1068 0
    endloop
  endfacet
  facet normal 0 0 -1
    outer loop
      vertex 11.3262 8.22899 0
      vertex 19.4164 14.1068 0
      vertex 21.7875 10 0
    endloop
  endfacet
  facet normal 0 0 -1
    outer loop
      vertex 12.7896 5.69431 0
      vertex 21.7875 10 0
      vertex 30 10 0
    endloop
  endfacet
  facet normal 0 0 -1
    outer loop
      vertex 28 5 0
      vertex 30 10 0
      vertex 30 -10 0
    endloop
  endfacet
  facet normal 0 0 -1
    outer loop
      vertex 9.36783 -10.404 0
      vertex 21.7875 -10 0
      vertex 19.4164 -14.1068 0
    endloop
  endfacet
  facet normal 0 0 -1
    outer loop
      vertex 4.32624 -13.3148 0
      vertex 19.4164 -14.1068 0
      vertex 16.0591 -17.8355 0
    endloop
  endfacet
  facet normal 0 0 -1
    outer loop
      vertex -1.4634 -13.9233 0
      vertex 16.0591 -17.8355 0
      vertex 12 -20.7846 0
    endloop
  endfacet
  facet normal 0 0 -1
    outer loop
      vertex -23.4755 -4.98988 0
      vertex 12 -20.7846 0
      vertex 7.41641 -22.8254 0
    endloop
  endfacet
  facet normal 0 0 -1
    outer loop
      vertex -23.4755 -4.98988 0
      vertex 7.41641 -22.8254 0
      vertex 2.50868 -23.8685 0
    endloop
  endfacet
  facet normal 0 0 -1
    outer loop
      vertex -23.4755 -4.98988 0
      vertex 2.50868 -23.8685 0
      vertex -2.50868 -23.8685 0
    endloop
  endfacet
  facet normal 0 0 -1
    outer loop
      vertex -23.4755 -4.98988 0
      vertex -2.50868 -23.8685 0
      vertex -7.41641 -22.8254 0
    endloop
  endfacet
  facet normal 0 0 -1
    outer loop
      vertex -23.4755 -4.98988 0
      vertex -7.41641 -22.8254 0
      vertex -12 -20.7846 0
    endloop
  endfacet
  facet normal 0 0 -1
    outer loop
      vertex -23.4755 -4.98988 0
      vertex -12 -20.7846 0
      vertex -16.0591 -17.8355 0
    endloop
  endfacet
  facet normal 0 0 -1
    outer loop
      vertex -23.4755 -4.98988 0
      vertex -16.0591 -17.8355 0
      vertex -19.4164 -14.1068 0
    endloop
  endfacet
  facet normal 0 0 -1
    outer loop
      vertex -23.4755 -4.98988 0
      vertex -19.4164 -14.1068 0
      vertex -21.9251 -9.76168 0
    endloop
  endfacet
  facet normal 0 0 -1
    outer loop
      vertex -13.6941 -2.91076 0
      vertex -23.4755 -4.98988 0
      vertex -14 0 0
    endloop
  endfacet
  facet normal 0 0 -1
    outer loop
      vertex -11.3262 -8.22899 0
      vertex -23.4755 -4.98988 0
      vertex -12.7896 -5.69431 0
    endloop
  endfacet
  facet normal 0 0 -1
    outer loop
      vertex -23.4755 -4.98988 0
      vertex -13.6941 -2.91076 0
      vertex -12.7896 -5.69431 0
    endloop
  endfacet
  facet normal 0 0 -1
    outer loop
      vertex -9.36783 -10.404 0
      vertex -23.4755 -4.98988 0
      vertex -11.3262 -8.22899 0
    endloop
  endfacet
  facet normal 0 0 -1
    outer loop
      vertex -1.4634 -13.9233 0
      vertex 12 -20.7846 0
      vertex -4.32624 -13.3148 0
    endloop
  endfacet
  facet normal 0 0 -1
    outer loop
      vertex -23.4755 -4.98988 0
      vertex -9.36783 -10.404 0
      vertex -7 -12.1244 0
    endloop
  endfacet
  facet normal 0 0 -1
    outer loop
      vertex -23.4755 -4.98988 0
      vertex -7 -12.1244 0
      vertex 12 -20.7846 0
    endloop
  endfacet
  facet normal 0 0 -1
    outer loop
      vertex -7 -12.1244 0
      vertex -4.32624 -13.3148 0
      vertex 12 -20.7846 0
    endloop
  endfacet
  facet normal 0 0 -1
    outer loop
      vertex 1.4634 -13.9233 0
      vertex 16.0591 -17.8355 0
      vertex -1.4634 -13.9233 0
    endloop
  endfacet
  facet normal 0 0 -1
    outer loop
      vertex 4.32624 -13.3148 0
      vertex 16.0591 -17.8355 0
      vertex 1.4634 -13.9233 0
    endloop
  endfacet
  facet normal 0 0 -1
    outer loop
      vertex 7 -12.1244 0
      vertex 19.4164 -14.1068 0
      vertex 4.32624 -13.3148 0
    endloop
  endfacet
  facet normal 0 0 -1
    outer loop
      vertex 9.36783 -10.404 0
      vertex 19.4164 -14.1068 0
      vertex 7 -12.1244 0
    endloop
  endfacet
  facet normal 0 0 -1
    outer loop
      vertex 13.6941 -2.91076 0
      vertex 30 10 0
      vertex 12.7896 -5.69431 0
    endloop
  endfacet
  facet normal 0 0 -1
    outer loop
      vertex 12.7896 5.69431 0
      vertex 30 10 0
      vertex 13.6941 2.91076 0
    endloop
  endfacet
  facet normal 0 0 -1
    outer loop
      vertex 14 0 0
      vertex 30 10 0
      vertex 13.6941 -2.91076 0
    endloop
  endfacet
  facet normal 0 0 -1
    outer loop
      vertex 13.6941 2.91076 0
      vertex 30 10 0
      vertex 14 0 0
    endloop
  endfacet
  facet normal 0 0 -1
    outer loop
      vertex 12.7896 -5.69431 0
      vertex 30 -10 0
      vertex 11.3262 -8.22899 0
    endloop
  endfacet
  facet normal 0 0 -1
    outer loop
      vertex 11.3262 -8.22899 0
      vertex 30 -10 0
      vertex 21.7875 -10 0
    endloop
  endfacet
  facet normal 0 0 -1
    outer loop
      vertex 11.3262 -8.22899 0
      vertex 21.7875 -10 0
      vertex 9.36783 -10.404 0
    endloop
  endfacet
  facet normal 0 0 -1
    outer loop
      vertex 7 12.1244 0
      vertex 16.0591 17.8355 0
      vertex 9.36783 10.404 0
    endloop
  endfacet
  facet normal 0 0 -1
    outer loop
      vertex 4.32624 13.3148 0
      vertex 16.0591 17.8355 0
      vertex 7 12.1244 0
    endloop
  endfacet
  facet normal 0 0 -1
    outer loop
      vertex 9.36783 10.404 0
      vertex 19.4164 14.1068 0
      vertex 11.3262 8.22899 0
    endloop
  endfacet
  facet normal 0 0 -1
    outer loop
      vertex -1.4634 13.9233 0
      vertex 7.41641 22.8254 0
      vertex 1.4634 13.9233 0
    endloop
  endfacet
  facet normal 0 0 -1
    outer loop
      vertex -7 12.1244 0
      vertex 2.50868 23.8685 0
      vertex -4.32624 13.3148 0
    endloop
  endfacet
  facet normal 0 0 -1
    outer loop
      vertex -12.7896 5.69431 0
      vertex -23.4755 -4.98988 0
      vertex -11.3262 8.22899 0
    endloop
  endfacet
  facet normal 0 0 -1
    outer loop
      vertex -9.36783 10.404 0
      vertex 2.50868 23.8685 0
      vertex -7 12.1244 0
    endloop
  endfacet
  facet normal 0 0 -1
    outer loop
      vertex -23.4755 -4.98988 0
      vertex 2.50868 23.8685 0
      vertex -9.36783 10.404 0
    endloop
  endfacet
  facet normal 0 0 -1
    outer loop
      vertex -23.4755 -4.98988 0
      vertex -9.36783 10.404 0
      vertex -11.3262 8.22899 0
    endloop
  endfacet
  facet normal 0 0 -1
    outer loop
      vertex -13.6941 2.91076 0
      vertex -23.4755 -4.98988 0
      vertex -12.7896 5.69431 0
    endloop
  endfacet
  facet normal 0 0 -1
    outer loop
      vertex 28 5 0
      vertex 30 -10 0
      vertex 28 -5 0
    endloop
  endfacet
  facet normal 0 0 -1
    outer loop
      vertex 11.3262 8.22899 0
      vertex 21.7875 10 0
      vertex 12.7896 5.69431 0
    endloop
  endfacet
  facet normal 0 0 -1
    outer loop
      vertex 12.7896 -5.69431 0
      vertex 30 10 0
      vertex 25 5 0
    endloop
  endfacet
  facet normal 0 0 -1
    outer loop
      vertex 12.7896 -5.69431 0
      vertex 25 5 0
      vertex 25 -5 0
    endloop
  endfacet
  facet normal 0 0 -1
    outer loop
      vertex 12.7896 -5.69431 0
      vertex 25 -5 0
      vertex 30 -10 0
    endloop
  endfacet
  facet normal 0 0 -1
    outer loop
      vertex 25 -5 0
      vertex 28 -5 0
      vertex 30 -10 0
    endloop
  endfacet
  facet normal 0 0 -1
    outer loop
      vertex 25 5 0
      vertex 30 10 0
      vertex 28 5 0
    endloop
  endfacet
  facet normal 0 0 -1
    outer loop
      vertex -14 0 0
      vertex -23.4755 -4.98988 0
      vertex -13.6941 2.91076 0
    endloop
  endfacet
  facet normal 0 0 -1
    outer loop
      vertex -4.32624 13.3148 0
      vertex 7.41641 22.8254 0
      vertex -1.4634 13.9233 0
    endloop
  endfacet
  facet normal 0 0 -1
    outer loop
      vertex 1.4634 13.9233 0
      vertex 12 20.7846 0
      vertex 4.32624 13.3148 0
    endloop
  endfacet
  facet normal -0.994522 0.104529 0
    outer loop
      vertex -24 0 0
      vertex -24 0 5
      vertex -23.4755 4.98988 0
    endloop
  endfacet
  facet normal -0.994522 0.104529 0
    outer loop
      vertex -23.4755 4.98988 0
      vertex -24 0 5
      vertex -23.4755 4.98988 5
    endloop
  endfacet
  facet normal -0.994522 -0.104529 0
    outer loop
      vertex -24 0 0
      vertex -23.4755 -4.98988 0
      vertex -24 0 5
    endloop
  endfacet
  facet normal -0.994522 -0.104529 0
    outer loop
      vertex -24 0 5
      vertex -23.4755 -4.98988 0
      vertex -23.4755 -4.98988 5
    endloop
  endfacet
  facet normal -0.951057 -0.309017 0
    outer loop
      vertex -23.4755 -4.98988 0
      vertex -21.9251 -9.76168 0
      vertex -23.4755 -4.98988 5
    endloop
  endfacet
  facet normal -0.951057 -0.309017 0
    outer loop
      vertex -23.4755 -4.98988 5
      vertex -21.9251 -9.76168 0
      vertex -21.9251 -9.76168 5
    endloop
  endfacet
  facet normal -0.866025 -0.5 0
    outer loop
      vertex -21.9251 -9.76168 0
      vertex -19.4164 -14.1068 0
      vertex -21.9251 -9.76168 5
    endloop
  endfacet
  facet normal -0.866025 -0.5 0
    outer loop
      vertex -21.9251 -9.76168 5
      vertex -19.4164 -14.1068 0
      vertex -19.4164 -14.1068 5
    endloop
  endfacet
  facet normal -0.743145 -0.669131 0
    outer loop
      vertex -19.4164 -14.1068 0
      vertex -16.0591 -17.8355 0
      vertex -19.4164 -14.1068 5
    endloop
  endfacet
  facet normal -0.743145 -0.669131 0
    outer loop
      vertex -19.4164 -14.1068 5
      vertex -16.0591 -17.8355 0
      vertex -16.0591 -17.8355 5
    endloop
  endfacet
  facet normal -0.587785 -0.809017 0
    outer loop
      vertex -16.0591 -17.8355 5
      vertex -16.0591 -17.8355 0
      vertex -12 -20.7846 0
    endloop
  endfacet
  facet normal -0.587785 -0.809017 0
    outer loop
      vertex -12 -20.7846 5
      vertex -16.0591 -17.8355 5
      vertex -12 -20.7846 0
    endloop
  endfacet
  facet normal -0.406737 -0.913546 0
    outer loop
      vertex -12 -20.7846 5
      vertex -12 -20.7846 0
      vertex -7.41641 -22.8254 0
    endloop
  endfacet
  facet normal -0.406737 -0.913546 0
    outer loop
      vertex -7.41641 -22.8254 5
      vertex -12 -20.7846 5
      vertex -7.41641 -22.8254 0
    endloop
  endfacet
  facet normal -0.207912 -0.978148 0
    outer loop
      vertex -7.41641 -22.8254 5
      vertex -7.41641 -22.8254 0
      vertex -2.50868 -23.8685 0
    endloop
  endfacet
  facet normal -0.207912 -0.978148 0
    outer loop
      vertex -2.50868 -23.8685 5
      vertex -7.41641 -22.8254 5
      vertex -2.50868 -23.8685 0
    endloop
  endfacet
  facet normal 0 -1 0
    outer loop
      vertex -2.50868 -23.8685 5
      vertex -2.50868 -23.8685 0
      vertex 2.50868 -23.8685 0
    endloop
  endfacet
  facet normal 0 -1 0
    outer loop
      vertex 2.50868 -23.8685 5
      vertex -2.50868 -23.8685 5
      vertex 2.50868 -23.8685 0
    endloop
  endfacet
  facet normal 0.207912 -0.978148 0
    outer loop
      vertex 2.50868 -23.8685 5
      vertex 2.50868 -23.8685 0
      vertex 7.41641 -22.8254 0
    endloop
  endfacet
  facet normal 0.207912 -0.978148 0
    outer loop
      vertex 7.41641 -22.8254 5
      vertex 2.50868 -23.8685 5
      vertex 7.41641 -22.8254 0
    endloop
  endfacet
  facet normal 0.406737 -0.913546 0
    outer loop
      vertex 7.41641 -22.8254 5
      vertex 7.41641 -22.8254 0
      vertex 12 -20.7846 0
    endloop
  endfacet
  facet normal 0.406737 -0.913546 0
    outer loop
      vertex 12 -20.7846 5
      vertex 7.41641 -22.8254 5
      vertex 12 -20.7846 0
    endloop
  endfacet
  facet normal 0.587785 -0.809017 0
    outer loop
      vertex 12 -20.7846 5
      vertex 12 -20.7846 0
      vertex 16.0591 -17.8355 0
    endloop
  endfacet
  facet normal 0.587785 -0.809017 0
    outer loop
      vertex 16.0591 -17.8355 5
      vertex 12 -20.7846 5
      vertex 16.0591 -17.8355 0
    endloop
  endfacet
  facet normal 0.743145 -0.669131 0
    outer loop
      vertex 16.0591 -17.8355 5
      vertex 16.0591 -17.8355 0
      vertex 19.4164 -14.1068 0
    endloop
  endfacet
  facet normal 0.743145 -0.669131 0
    outer loop
      vertex 19.4164 -14.1068 5
      vertex 16.0591 -17.8355 5
      vertex 19.4164 -14.1068 0
    endloop
  endfacet
  facet normal 0.866025 -0.5 0
    outer loop
      vertex 19.4164 -14.1068 5
      vertex 19.4164 -14.1068 0
      vertex 21.7875 -10 0
    endloop
  endfacet
  facet normal 0.866025 -0.5 0
    outer loop
      vertex 21.9251 -9.76168 3
      vertex 19.4164 -14.1068 5
      vertex 21.7875 -10 3
    endloop
  endfacet
  facet normal 0.866025 -0.5 0
    outer loop
      vertex 21.7875 -10 3
      vertex 19.4164 -14.1068 5
      vertex 21.7875 -10 0
    endloop
  endfacet
  facet normal 0.866025 -0.5 0
    outer loop
      vertex 21.9251 -9.76168 5
      vertex 19.4164 -14.1068 5
      vertex 21.9251 -9.76168 3
    endloop
  endfacet
  facet normal 0 -1 0
    outer loop
      vertex 21.7875 -10 3
      vertex 21.7875 -10 0
      vertex 30 -10 0
    endloop
  endfacet
  facet normal 0 -1 0
    outer loop
      vertex 30 -10 3
      vertex 21.7875 -10 3
      vertex 30 -10 0
    endloop
  endfacet
  facet normal 1 0 0
    outer loop
      vertex 30 -10 3
      vertex 30 -10 0
      vertex 30 10 0
    endloop
  endfacet
  facet normal 1 0 0
    outer loop
      vertex 30 10 3
      vertex 30 -10 3
      vertex 30 10 0
    endloop
  endfacet
  facet normal 0 1 0
    outer loop
      vertex 21.7875 10 0
      vertex 21.7875 10 3
      vertex 30 10 0
    endloop
  endfacet
  facet normal 0 1 0
    outer loop
      vertex 30 10 0
      vertex 21.7875 10 3
      vertex 30 10 3
    endloop
  endfacet
  facet normal 0.866025 0.5 0
    outer loop
      vertex 21.7875 10 0
      vertex 19.4164 14.1068 0
      vertex 19.4164 14.1068 5
    endloop
  endfacet
  facet normal 0.866025 0.5 0
    outer loop
      vertex 21.7875 10 3
      vertex 21.7875 10 0
      vertex 19.4164 14.1068 5
    endloop
  endfacet
  facet normal 0.866025 0.5 0
    outer loop
      vertex 21.9251 9.76168 5
      vertex 21.7875 10 3
      vertex 19.4164 14.1068 5
    endloop
  endfacet
  facet normal 0.866025 0.5 0
    outer loop
      vertex 21.9251 9.76168 3
      vertex 21.7875 10 3
      vertex 21.9251 9.76168 5
    endloop
  endfacet
  facet normal 0.743145 0.669131 0
    outer loop
      vertex 19.4164 14.1068 0
      vertex 16.0591 17.8355 0
      vertex 16.0591 17.8355 5
    endloop
  endfacet
  facet normal 0.743145 0.669131 0
    outer loop
      vertex 19.4164 14.1068 5
      vertex 19.4164 14.1068 0
      vertex 16.0591 17.8355 5
    endloop
  endfacet
  facet normal 0.587785 0.809017 0
    outer loop
      vertex 12 20.7846 0
      vertex 12 20.7846 5
      vertex 16.0591 17.8355 0
    endloop
  endfacet
  facet normal 0.587785 0.809017 0
    outer loop
      vertex 16.0591 17.8355 0
      vertex 12 20.7846 5
      vertex 16.0591 17.8355 5
    endloop
  endfacet
  facet normal 0.406737 0.913546 0
    outer loop
      vertex 7.41641 22.8254 0
      vertex 7.41641 22.8254 5
      vertex 12 20.7846 0
    endloop
  endfacet
  facet normal 0.406737 0.913546 0
    outer loop
      vertex 12 20.7846 0
      vertex 7.41641 22.8254 5
      vertex 12 20.7846 5
    endloop
  endfacet
  facet normal 0.207912 0.978148 0
    outer loop
      vertex 2.50868 23.8685 0
      vertex 2.50868 23.8685 5
      vertex 7.41641 22.8254 0
    endloop
  endfacet
  facet normal 0.207912 0.978148 0
    outer loop
      vertex 7.41641 22.8254 0
      vertex 2.50868 23.8685 5
      vertex 7.41641 22.8254 5
    endloop
  endfacet
  facet normal 0 1 0
    outer loop
      vertex -2.50868 23.8685 0
      vertex -2.50868 23.8685 5
      vertex 2.50868 23.8685 0
    endloop
  endfacet
  facet normal 0 1 0
    outer loop
      vertex 2.50868 23.8685 0
      vertex -2.50868 23.8685 5
      vertex 2.50868 23.8685 5
    endloop
  endfacet
  facet normal -0.207912 0.978148 0
    outer loop
      vertex -7.41641 22.8254 0
      vertex -7.41641 22.8254 5
      vertex -2.50868 23.8685 0
    endloop
  endfacet
  facet normal -0.207912 0.978148 0
    outer loop
      vertex -2.50868 23.8685 0
      vertex -7.41641 22.8254 5
      vertex -2.50868 23.8685 5
    endloop
  endfacet
  facet normal -0.406737 0.913546 0
    outer loop
      vertex -12 20.7846 0
      vertex -12 20.7846 5
      vertex -7.41641 22.8254 0
    endloop
  endfacet
  facet normal -0.406737 0.913546 0
    outer loop
      vertex -7.41641 22.8254 0
      vertex -12 20.7846 5
      vertex -7.41641 22.8254 5
    endloop
  endfacet
  facet normal -0.587785 0.809017 0
    outer loop
      vertex -16.0591 17.8355 0
      vertex -16.0591 17.8355 5
      vertex -12 20.7846 0
    endloop
  endfacet
  facet normal -0.587785 0.809017 0
    outer loop
      vertex -12 20.7846 0
      vertex -16.0591 17.8355 5
      vertex -12 20.7846 5
    endloop
  endfacet
  facet normal -0.743145 0.669131 0
    outer loop
      vertex -19.4164 14.1068 0
      vertex -19.4164 14.1068 5
      vertex -16.0591 17.8355 0
    endloop
  endfacet
  facet normal -0.743145 0.669131 0
    outer loop
      vertex -16.0591 17.8355 0
      vertex -19.4164 14.1068 5
      vertex -16.0591 17.8355 5
    endloop
  endfacet
  facet normal -0.866025 0.5 0
    outer loop
      vertex -21.9251 9.76168 0
      vertex -21.9251 9.76168 5
      vertex -19.4164 14.1068 0
    endloop
  endfacet
  facet normal -0.866025 0.5 0
    outer loop
      vertex -19.4164 14.1068 0
      vertex -21.9251 9.76168 5
      vertex -19.4164 14.1068 5
    endloop
  endfacet
  facet normal -0.951057 0.309017 0
    outer loop
      vertex -23.4755 4.98988 0
      vertex -23.4755 4.98988 5
      vertex -21.9251 9.76168 0
    endloop
  endfacet
  facet normal -0.951057 0.309017 0
    outer loop
      vertex -21.9251 9.76168 0
      vertex -23.4755 4.98988 5
      vertex -21.9251 9.76168 5
    endloop
  endfacet
  facet normal 0.994522 -0.104529 0
    outer loop
      vertex -13.6941 2.91076 0
      vertex -13.6941 2.91076 5
      vertex -14 0 5
    endloop
  endfacet
  facet normal 0.994522 -0.104529 0
    outer loop
      vertex -14 0 0
      vertex -13.6941 2.91076 0
      vertex -14 0 5
    endloop
  endfacet
  facet normal 0.994522 0.104529 0
    outer loop
      vertex -14 0 5
      vertex -13.6941 -2.91076 5
      vertex -13.6941 -2.91076 0
    endloop
  endfacet
  facet normal 0.994522 0.104529 0
    outer loop
      vertex -14 0 0
      vertex -14 0 5
      vertex -13.6941 -2.91076 0
    endloop
  endfacet
  facet normal 0.951057 -0.309017 0
    outer loop
      vertex -12.7896 5.69431 0
      vertex -12.7896 5.69431 5
      vertex -13.6941 2.91076 5
    endloop
  endfacet
  facet normal 0.951057 -0.309017 0
    outer loop
      vertex -13.6941 2.91076 0
      vertex -12.7896 5.69431 0
      vertex -13.6941 2.91076 5
    endloop
  endfacet
  facet normal 0.866026 -0.5 0
    outer loop
      vertex -11.3262 8.22899 0
      vertex -11.3262 8.22899 5
      vertex -12.7896 5.69431 5
    endloop
  endfacet
  facet normal 0.866026 -0.5 0
    outer loop
      vertex -12.7896 5.69431 0
      vertex -11.3262 8.22899 0
      vertex -12.7896 5.69431 5
    endloop
  endfacet
  facet normal 0.743145 -0.669131 0
    outer loop
      vertex -9.36783 10.404 0
      vertex -9.36783 10.404 5
      vertex -11.3262 8.22899 5
    endloop
  endfacet
  facet normal 0.743145 -0.669131 0
    outer loop
      vertex -11.3262 8.22899 0
      vertex -9.36783 10.404 0
      vertex -11.3262 8.22899 5
    endloop
  endfacet
  facet normal 0.587785 -0.809017 0
    outer loop
      vertex -7 12.1244 0
      vertex -7 12.1244 5
      vertex -9.36783 10.404 5
    endloop
  endfacet
  facet normal 0.587785 -0.809017 0
    outer loop
      vertex -9.36783 10.404 0
      vertex -7 12.1244 0
      vertex -9.36783 10.404 5
    endloop
  endfacet
  facet normal 0.406736 -0.913546 0
    outer loop
      vertex -4.32624 13.3148 0
      vertex -4.32624 13.3148 5
      vertex -7 12.1244 5
    endloop
  endfacet
  facet normal 0.406736 -0.913546 0
    outer loop
      vertex -7 12.1244 0
      vertex -4.32624 13.3148 0
      vertex -7 12.1244 5
    endloop
  endfacet
  facet normal 0.207912 -0.978148 0
    outer loop
      vertex -1.4634 13.9233 0
      vertex -1.4634 13.9233 5
      vertex -4.32624 13.3148 5
    endloop
  endfacet
  facet normal 0.207912 -0.978148 0
    outer loop
      vertex -4.32624 13.3148 0
      vertex -1.4634 13.9233 0
      vertex -4.32624 13.3148 5
    endloop
  endfacet
  facet normal 0 -1 0
    outer loop
      vertex 1.4634 13.9233 0
      vertex 1.4634 13.9233 5
      vertex -1.4634 13.9233 5
    endloop
  endfacet
  facet normal 0 -1 0
    outer loop
      vertex -1.4634 13.9233 0
      vertex 1.4634 13.9233 0
      vertex -1.4634 13.9233 5
    endloop
  endfacet
  facet normal -0.207912 -0.978148 0
    outer loop
      vertex 4.32624 13.3148 0
      vertex 4.32624 13.3148 5
      vertex 1.4634 13.9233 5
    endloop
  endfacet
  facet normal -0.207912 -0.978148 0
    outer loop
      vertex 1.4634 13.9233 0
      vertex 4.32624 13.3148 0
      vertex 1.4634 13.9233 5
    endloop
  endfacet
  facet normal -0.406736 -0.913546 0
    outer loop
      vertex 7 12.1244 0
      vertex 7 12.1244 5
      vertex 4.32624 13.3148 5
    endloop
  endfacet
  facet normal -0.406736 -0.913546 0
    outer loop
      vertex 4.32624 13.3148 0
      vertex 7 12.1244 0
      vertex 4.32624 13.3148 5
    endloop
  endfacet
  facet normal -0.587785 -0.809017 0
    outer loop
      vertex 9.36783 10.404 0
      vertex 9.36783 10.404 5
      vertex 7 12.1244 5
    endloop
  endfacet
  facet normal -0.587785 -0.809017 0
    outer loop
      vertex 7 12.1244 0
      vertex 9.36783 10.404 0
      vertex 7 12.1244 5
    endloop
  endfacet
  facet normal -0.743145 -0.669131 0
    outer loop
      vertex 11.3262 8.22899 5
      vertex 9.36783 10.404 5
      vertex 11.3262 8.22899 0
    endloop
  endfacet
  facet normal -0.743145 -0.669131 0
    outer loop
      vertex 11.3262 8.22899 0
      vertex 9.36783 10.404 5
      vertex 9.36783 10.404 0
    endloop
  endfacet
  facet normal -0.866026 -0.5 0
    outer loop
      vertex 12.7896 5.69431 5
      vertex 11.3262 8.22899 5
      vertex 12.7896 5.69431 0
    endloop
  endfacet
  facet normal -0.866026 -0.5 0
    outer loop
      vertex 12.7896 5.69431 0
      vertex 11.3262 8.22899 5
      vertex 11.3262 8.22899 0
    endloop
  endfacet
  facet normal -0.951057 -0.309017 0
    outer loop
      vertex 13.6941 2.91076 5
      vertex 12.7896 5.69431 5
      vertex 13.6941 2.91076 0
    endloop
  endfacet
  facet normal -0.951057 -0.309017 0
    outer loop
      vertex 13.6941 2.91076 0
      vertex 12.7896 5.69431 5
      vertex 12.7896 5.69431 0
    endloop
  endfacet
  facet normal -0.994522 -0.104529 0
    outer loop
      vertex 14 0 5
      vertex 13.6941 2.91076 5
      vertex 14 0 0
    endloop
  endfacet
  facet normal -0.994522 -0.104529 0
    outer loop
      vertex 14 0 0
      vertex 13.6941 2.91076 5
      vertex 13.6941 2.91076 0
    endloop
  endfacet
  facet normal -0.994522 0.104529 0
    outer loop
      vertex 14 0 5
      vertex 14 0 0
      vertex 13.6941 -2.91076 5
    endloop
  endfacet
  facet normal -0.994522 0.104529 0
    outer loop
      vertex 13.6941 -2.91076 5
      vertex 14 0 0
      vertex 13.6941 -2.91076 0
    endloop
  endfacet
  facet normal -0.951057 0.309017 0
    outer loop
      vertex 13.6941 -2.91076 5
      vertex 13.6941 -2.91076 0
      vertex 12.7896 -5.69431 5
    endloop
  endfacet
  facet normal -0.951057 0.309017 0
    outer loop
      vertex 12.7896 -5.69431 5
      vertex 13.6941 -2.91076 0
      vertex 12.7896 -5.69431 0
    endloop
  endfacet
  facet normal -0.866026 0.5 0
    outer loop
      vertex 12.7896 -5.69431 5
      vertex 12.7896 -5.69431 0
      vertex 11.3262 -8.22899 5
    endloop
  endfacet
  facet normal -0.866026 0.5 0
    outer loop
      vertex 11.3262 -8.22899 5
      vertex 12.7896 -5.69431 0
      vertex 11.3262 -8.22899 0
    endloop
  endfacet
  facet normal -0.743145 0.669131 0
    outer loop
      vertex 11.3262 -8.22899 5
      vertex 11.3262 -8.22899 0
      vertex 9.36783 -10.404 5
    endloop
  endfacet
  facet normal -0.743145 0.669131 0
    outer loop
      vertex 9.36783 -10.404 5
      vertex 11.3262 -8.22899 0
      vertex 9.36783 -10.404 0
    endloop
  endfacet
  facet normal -0.587785 0.809017 0
    outer loop
      vertex 9.36783 -10.404 5
      vertex 9.36783 -10.404 0
      vertex 7 -12.1244 5
    endloop
  endfacet
  facet normal -0.587785 0.809017 0
    outer loop
      vertex 7 -12.1244 5
      vertex 9.36783 -10.404 0
      vertex 7 -12.1244 0
    endloop
  endfacet
  facet normal -0.406736 0.913546 0
    outer loop
      vertex 7 -12.1244 5
      vertex 7 -12.1244 0
      vertex 4.32624 -13.3148 5
    endloop
  endfacet
  facet normal -0.406736 0.913546 0
    outer loop
      vertex 4.32624 -13.3148 5
      vertex 7 -12.1244 0
      vertex 4.32624 -13.3148 0
    endloop
  endfacet
  facet normal -0.207912 0.978148 0
    outer loop
      vertex 4.32624 -13.3148 5
      vertex 4.32624 -13.3148 0
      vertex 1.4634 -13.9233 5
    endloop
  endfacet
  facet normal -0.207912 0.978148 0
    outer loop
      vertex 1.4634 -13.9233 5
      vertex 4.32624 -13.3148 0
      vertex 1.4634 -13.9233 0
    endloop
  endfacet
  facet normal 0 1 0
    outer loop
      vertex 1.4634 -13.9233 5
      vertex 1.4634 -13.9233 0
      vertex -1.4634 -13.9233 5
    endloop
  endfacet
  facet normal 0 1 0
    outer loop
      vertex -1.4634 -13.9233 5
      vertex 1.4634 -13.9233 0
      vertex -1.4634 -13.9233 0
    endloop
  endfacet
  facet normal 0.207912 0.978148 0
    outer loop
      vertex -1.4634 -13.9233 5
      vertex -1.4634 -13.9233 0
      vertex -4.32624 -13.3148 5
    endloop
  endfacet
  facet normal 0.207912 0.978148 0
    outer loop
      vertex -4.32624 -13.3148 5
      vertex -1.4634 -13.9233 0
      vertex -4.32624 -13.3148 0
    endloop
  endfacet
  facet normal 0.406736 0.913546 0
    outer loop
      vertex -4.32624 -13.3148 5
      vertex -4.32624 -13.3148 0
      vertex -7 -12.1244 5
    endloop
  endfacet
  facet normal 0.406736 0.913546 0
    outer loop
      vertex -7 -12.1244 5
      vertex -4.32624 -13.3148 0
      vertex -7 -12.1244 0
    endloop
  endfacet
  facet normal 0.587785 0.809017 0
    outer loop
      vertex -7 -12.1244 5
      vertex -7 -12.1244 0
      vertex -9.36783 -10.404 5
    endloop
  endfacet
  facet normal 0.587785 0.809017 0
    outer loop
      vertex -9.36783 -10.404 5
      vertex -7 -12.1244 0
      vertex -9.36783 -10.404 0
    endloop
  endfacet
  facet normal 0.743145 0.669131 0
    outer loop
      vertex -11.3262 -8.22899 5
      vertex -9.36783 -10.404 5
      vertex -9.36783 -10.404 0
    endloop
  endfacet
  facet normal 0.743145 0.669131 0
    outer loop
      vertex -11.3262 -8.22899 0
      vertex -11.3262 -8.22899 5
      vertex -9.36783 -10.404 0
    endloop
  endfacet
  facet normal 0.866026 0.5 0
    outer loop
      vertex -12.7896 -5.69431 5
      vertex -11.3262 -8.22899 5
      vertex -11.3262 -8.22899 0
    endloop
  endfacet
  facet normal 0.866026 0.5 0
    outer loop
      vertex -12.7896 -5.69431 0
      vertex -12.7896 -5.69431 5
      vertex -11.3262 -8.22899 0
    endloop
  endfacet
  facet normal 0.951057 0.309017 0
    outer loop
      vertex -13.6941 -2.91076 5
      vertex -12.7896 -5.69431 5
      vertex -12.7896 -5.69431 0
    endloop
  endfacet
  facet normal 0.951057 0.309017 0
    outer loop
      vertex -13.6941 -2.91076 0
      vertex -13.6941 -2.91076 5
      vertex -12.7896 -5.69431 0
    endloop
  endfacet
  facet normal 1 0 0
    outer loop
      vertex 25 5 0
      vertex 25 5 3
      vertex 25 -5 3
    endloop
  endfacet
  facet normal 1 0 0
    outer loop
      vertex 25 -5 0
      vertex 25 5 0
      vertex 25 -5 3
    endloop
  endfacet
  facet normal 0 -1 0
    outer loop
      vertex 28 5 0
      vertex 28 5 3
      vertex 25 5 3
    endloop
  endfacet
  facet normal 0 -1 0
    outer loop
      vertex 25 5 0
      vertex 28 5 0
      vertex 25 5 3
    endloop
  endfacet
  facet normal -1 0 0
    outer loop
      vertex 28 5 3
      vertex 28 5 0
      vertex 28 -5 3
    endloop
  endfacet
  facet normal -1 0 0
    outer loop
      vertex 28 -5 3
      vertex 28 5 0
      vertex 28 -5 0
    endloop
  endfacet
  facet normal 0 1 0
    outer loop
      vertex 28 -5 3
      vertex 28 -5 0
      vertex 25 -5 3
    endloop
  endfacet
  facet normal 0 1 0
    outer loop
      vertex 25 -5 3
      vertex 28 -5 0
      vertex 25 -5 0
    endloop
  endfacet
  facet normal 0 0 1
    outer loop
      vertex -23.4755 4.98988 5
      vertex -24 0 5
      vertex -23.4755 -4.98988 5
    endloop
  endfacet
  facet normal 0 0 1
    outer loop
      vertex 15.39 -17.0923 5
      vertex 11.5 -19.9186 5
      vertex 16.0591 -17.8355 5
    endloop
  endfacet
  facet normal 0 0 1
    outer loop
      vertex -23 0 5
      vertex -23.4755 4.98988 5
      vertex -23.4755 -4.98988 5
    endloop
  endfacet
  facet normal 0 0 1
    outer loop
      vertex -21.9251 9.76168 5
      vertex -23.4755 4.98988 5
      vertex -19.4164 14.1068 5
    endloop
  endfacet
  facet normal 0 0 1
    outer loop
      vertex -21.9251 -9.76168 5
      vertex -22.4974 -4.78197 5
      vertex -23.4755 -4.98988 5
    endloop
  endfacet
  facet normal 0 0 1
    outer loop
      vertex -22.4974 -4.78197 5
      vertex -23 0 5
      vertex -23.4755 -4.98988 5
    endloop
  endfacet
  facet normal 0 0 1
    outer loop
      vertex 18.6074 -13.5191 5
      vertex 15.39 -17.0923 5
      vertex 19.4164 -14.1068 5
    endloop
  endfacet
  facet normal 0 0 1
    outer loop
      vertex -15.39 17.0923 5
      vertex -11.5 19.9186 5
      vertex -12 20.7846 5
    endloop
  endfacet
  facet normal 0 0 1
    outer loop
      vertex -19.4164 14.1068 5
      vertex -23.4755 4.98988 5
      vertex -21.0115 9.35494 5
    endloop
  endfacet
  facet normal 0 0 1
    outer loop
      vertex -19.4164 14.1068 5
      vertex -18.6074 13.5191 5
      vertex -16.0591 17.8355 5
    endloop
  endfacet
  facet normal 0 0 1
    outer loop
      vertex -19.4164 14.1068 5
      vertex -21.0115 9.35494 5
      vertex -18.6074 13.5191 5
    endloop
  endfacet
  facet normal 0 0 1
    outer loop
      vertex -16.0591 17.8355 5
      vertex -15.39 17.0923 5
      vertex -12 20.7846 5
    endloop
  endfacet
  facet normal 0 0 1
    outer loop
      vertex -18.6074 13.5191 5
      vertex -15.39 17.0923 5
      vertex -16.0591 17.8355 5
    endloop
  endfacet
  facet normal 0 0 1
    outer loop
      vertex -12 20.7846 5
      vertex -11.5 19.9186 5
      vertex -7.41641 22.8254 5
    endloop
  endfacet
  facet normal 0 0 1
    outer loop
      vertex -7.41641 22.8254 5
      vertex -7.10739 21.8743 5
      vertex -2.50868 23.8685 5
    endloop
  endfacet
  facet normal 0 0 1
    outer loop
      vertex -2.50868 23.8685 5
      vertex -2.40415 22.874 5
      vertex 2.50868 23.8685 5
    endloop
  endfacet
  facet normal 0 0 1
    outer loop
      vertex 2.50868 23.8685 5
      vertex 2.40415 22.874 5
      vertex 7.41641 22.8254 5
    endloop
  endfacet
  facet normal 0 0 1
    outer loop
      vertex 7.41641 22.8254 5
      vertex 7.10739 21.8743 5
      vertex 12 20.7846 5
    endloop
  endfacet
  facet normal 0 0 1
    outer loop
      vertex 12 20.7846 5
      vertex 11.5 19.9186 5
      vertex 16.0591 17.8355 5
    endloop
  endfacet
  facet normal 0 0 1
    outer loop
      vertex 16.0591 17.8355 5
      vertex 15.39 17.0923 5
      vertex 19.4164 14.1068 5
    endloop
  endfacet
  facet normal 0 0 1
    outer loop
      vertex 19.4164 14.1068 5
      vertex 18.6074 13.5191 5
      vertex 21.9251 9.76168 5
    endloop
  endfacet
  facet normal 0 0 1
    outer loop
      vertex 21.9251 9.76168 5
      vertex 21.0115 9.35494 5
      vertex 23.4755 4.98988 5
    endloop
  endfacet
  facet normal 0 0 1
    outer loop
      vertex 23.4755 4.98988 5
      vertex 22.4974 4.78197 5
      vertex 24 0 5
    endloop
  endfacet
  facet normal 0 0 1
    outer loop
      vertex 24 0 5
      vertex 23 0 5
      vertex 23.4755 -4.98988 5
    endloop
  endfacet
  facet normal 0 0 1
    outer loop
      vertex 23 0 5
      vertex 22.4974 -4.78197 5
      vertex 23.4755 -4.98988 5
    endloop
  endfacet
  facet normal 0 0 1
    outer loop
      vertex 23.4755 -4.98988 5
      vertex 21.0115 -9.35494 5
      vertex 21.9251 -9.76168 5
    endloop
  endfacet
  facet normal 0 0 1
    outer loop
      vertex 21.9251 -9.76168 5
      vertex 18.6074 -13.5191 5
      vertex 19.4164 -14.1068 5
    endloop
  endfacet
  facet normal 0 0 1
    outer loop
      vertex -11.5 19.9186 5
      vertex -7.10739 21.8743 5
      vertex -7.41641 22.8254 5
    endloop
  endfacet
  facet normal 0 0 1
    outer loop
      vertex 19.4164 -14.1068 5
      vertex 15.39 -17.0923 5
      vertex 16.0591 -17.8355 5
    endloop
  endfacet
  facet normal 0 0 1
    outer loop
      vertex -7.10739 21.8743 5
      vertex -2.40415 22.874 5
      vertex -2.50868 23.8685 5
    endloop
  endfacet
  facet normal 0 0 1
    outer loop
      vertex 16.0591 -17.8355 5
      vertex 11.5 -19.9186 5
      vertex 12 -20.7846 5
    endloop
  endfacet
  facet normal 0 0 1
    outer loop
      vertex -2.40415 22.874 5
      vertex 2.40415 22.874 5
      vertex 2.50868 23.8685 5
    endloop
  endfacet
  facet normal 0 0 1
    outer loop
      vertex 12 -20.7846 5
      vertex 7.10739 -21.8743 5
      vertex 7.41641 -22.8254 5
    endloop
  endfacet
  facet normal 0 0 1
    outer loop
      vertex 2.40415 22.874 5
      vertex 7.10739 21.8743 5
      vertex 7.41641 22.8254 5
    endloop
  endfacet
  facet normal 0 0 1
    outer loop
      vertex 7.41641 -22.8254 5
      vertex 2.40415 -22.874 5
      vertex 2.50868 -23.8685 5
    endloop
  endfacet
  facet normal 0 0 1
    outer loop
      vertex 7.10739 21.8743 5
      vertex 11.5 19.9186 5
      vertex 12 20.7846 5
    endloop
  endfacet
  facet normal 0 0 1
    outer loop
      vertex 2.50868 -23.8685 5
      vertex -2.40415 -22.874 5
      vertex -2.50868 -23.8685 5
    endloop
  endfacet
  facet normal 0 0 1
    outer loop
      vertex 11.5 19.9186 5
      vertex 15.39 17.0923 5
      vertex 16.0591 17.8355 5
    endloop
  endfacet
  facet normal 0 0 1
    outer loop
      vertex -2.50868 -23.8685 5
      vertex -7.10739 -21.8743 5
      vertex -7.41641 -22.8254 5
    endloop
  endfacet
  facet normal 0 0 1
    outer loop
      vertex 15.39 17.0923 5
      vertex 18.6074 13.5191 5
      vertex 19.4164 14.1068 5
    endloop
  endfacet
  facet normal 0 0 1
    outer loop
      vertex -7.41641 -22.8254 5
      vertex -11.5 -19.9186 5
      vertex -12 -20.7846 5
    endloop
  endfacet
  facet normal 0 0 1
    outer loop
      vertex 18.6074 13.5191 5
      vertex 21.0115 9.35494 5
      vertex 21.9251 9.76168 5
    endloop
  endfacet
  facet normal 0 0 1
    outer loop
      vertex -12 -20.7846 5
      vertex -15.39 -17.0923 5
      vertex -16.0591 -17.8355 5
    endloop
  endfacet
  facet normal 0 0 1
    outer loop
      vertex 21.0115 9.35494 5
      vertex 22.4974 4.78197 5
      vertex 23.4755 4.98988 5
    endloop
  endfacet
  facet normal 0 0 1
    outer loop
      vertex -16.0591 -17.8355 5
      vertex -18.6074 -13.5191 5
      vertex -19.4164 -14.1068 5
    endloop
  endfacet
  facet normal 0 0 1
    outer loop
      vertex 22.4974 4.78197 5
      vertex 23 0 5
      vertex 24 0 5
    endloop
  endfacet
  facet normal 0 0 1
    outer loop
      vertex -19.4164 -14.1068 5
      vertex -21.0115 -9.35494 5
      vertex -21.9251 -9.76168 5
    endloop
  endfacet
  facet normal 0 0 1
    outer loop
      vertex 22.4974 -4.78197 5
      vertex 21.0115 -9.35494 5
      vertex 23.4755 -4.98988 5
    endloop
  endfacet
  facet normal 0 0 1
    outer loop
      vertex -21.0115 -9.35494 5
      vertex -22.4974 -4.78197 5
      vertex -21.9251 -9.76168 5
    endloop
  endfacet
  facet normal 0 0 1
    outer loop
      vertex 11.5 -19.9186 5
      vertex 7.10739 -21.8743 5
      vertex 12 -20.7846 5
    endloop
  endfacet
  facet normal 0 0 1
    outer loop
      vertex 7.10739 -21.8743 5
      vertex 2.40415 -22.874 5
      vertex 7.41641 -22.8254 5
    endloop
  endfacet
  facet normal 0 0 1
    outer loop
      vertex 2.40415 -22.874 5
      vertex -2.40415 -22.874 5
      vertex 2.50868 -23.8685 5
    endloop
  endfacet
  facet normal 0 0 1
    outer loop
      vertex -2.40415 -22.874 5
      vertex -7.10739 -21.8743 5
      vertex -2.50868 -23.8685 5
    endloop
  endfacet
  facet normal 0 0 1
    outer loop
      vertex -7.10739 -21.8743 5
      vertex -11.5 -19.9186 5
      vertex -7.41641 -22.8254 5
    endloop
  endfacet
  facet normal 0 0 1
    outer loop
      vertex -11.5 -19.9186 5
      vertex -15.39 -17.0923 5
      vertex -12 -20.7846 5
    endloop
  endfacet
  facet normal 0 0 1
    outer loop
      vertex -15.39 -17.0923 5
      vertex -18.6074 -13.5191 5
      vertex -16.0591 -17.8355 5
    endloop
  endfacet
  facet normal 0 0 1
    outer loop
      vertex -18.6074 -13.5191 5
      vertex -21.0115 -9.35494 5
      vertex -19.4164 -14.1068 5
    endloop
  endfacet
  facet normal 0 0 1
    outer loop
      vertex -23 0 5
      vertex -22.4974 4.78197 5
      vertex -23.4755 4.98988 5
    endloop
  endfacet
  facet normal 0 0 1
    outer loop
      vertex 21.0115 -9.35494 5
      vertex 18.6074 -13.5191 5
      vertex 21.9251 -9.76168 5
    endloop
  endfacet
  facet normal 0 0 1
    outer loop
      vertex -22.4974 4.78197 5
      vertex -21.0115 9.35494 5
      vertex -23.4755 4.98988 5
    endloop
  endfacet
  facet normal 0.951057 -0.309017 0
    outer loop
      vertex 21.9251 -9.76168 5
      vertex 21.9251 -9.76168 3
      vertex 23.4755 -4.98988 3
    endloop
  endfacet
  facet normal 0.951057 -0.309017 0
    outer loop
      vertex 23.4755 -4.98988 5
      vertex 21.9251 -9.76168 5
      vertex 23.4755 -4.98988 3
    endloop
  endfacet
  facet normal 0 0 1
    outer loop
      vertex 21.9251 -9.76168 3
      vertex 21.7875 -10 3
      vertex 30 -10 3
    endloop
  endfacet
  facet normal 0 0 1
    outer loop
      vertex 25 5 3
      vertex 28 5 3
      vertex 30 10 3
    endloop
  endfacet
  facet normal 0 0 1
    outer loop
      vertex 25 -5 3
      vertex 21.9251 -9.76168 3
      vertex 30 -10 3
    endloop
  endfacet
  facet normal 0 0 1
    outer loop
      vertex 21.9251 9.76168 3
      vertex 30 10 3
      vertex 21.7875 10 3
    endloop
  endfacet
  facet normal 0 0 1
    outer loop
      vertex 23.4755 4.98988 3
      vertex 30 10 3
      vertex 21.9251 9.76168 3
    endloop
  endfacet
  facet normal 0 0 1
    outer loop
      vertex 25 5 3
      vertex 30 10 3
      vertex 23.4755 4.98988 3
    endloop
  endfacet
  facet normal 0 0 1
    outer loop
      vertex 28 5 3
      vertex 28 -5 3
      vertex 30 10 3
    endloop
  endfacet
  facet normal 0 0 1
    outer loop
      vertex 28 -5 3
      vertex 25 -5 3
      vertex 30 -10 3
    endloop
  endfacet
  facet normal 0 0 1
    outer loop
      vertex 24 0 3
      vertex 25 5 3
      vertex 23.4755 4.98988 3
    endloop
  endfacet
  facet normal 0 0 1
    outer loop
      vertex 30 10 3
      vertex 28 -5 3
      vertex 30 -10 3
    endloop
  endfacet
  facet normal 0 0 1
    outer loop
      vertex 25 -5 3
      vertex 23.4755 -4.98988 3
      vertex 21.9251 -9.76168 3
    endloop
  endfacet
  facet normal 0 0 1
    outer loop
      vertex 25 -5 3
      vertex 24 0 3
      vertex 23.4755 -4.98988 3
    endloop
  endfacet
  facet normal 0 0 1
    outer loop
      vertex 25 -5 3
      vertex 25 5 3
      vertex 24 0 3
    endloop
  endfacet
  facet normal 0.951057 0.309017 0
    outer loop
      vertex 23.4755 4.98988 3
      vertex 21.9251 9.76168 3
      vertex 21.9251 9.76168 5
    endloop
  endfacet
  facet normal 0.951057 0.309017 0
    outer loop
      vertex 23.4755 4.98988 5
      vertex 23.4755 4.98988 3
      vertex 21.9251 9.76168 5
    endloop
  endfacet
  facet normal 0 0 1
    outer loop
      vertex -14.6722 3.11867 5
      vertex -15 0 5
      vertex -14.6722 -3.11867 5
    endloop
  endfacet
  facet normal 0 0 1
    outer loop
      vertex -13.6941 -2.91076 5
      vertex -14.6722 3.11867 5
      vertex -13.7032 -6.10105 5
    endloop
  endfacet
  facet normal 0 0 1
    outer loop
      vertex -13.7032 -6.10105 5
      vertex -14.6722 3.11867 5
      vertex -14.6722 -3.11867 5
    endloop
  endfacet
  facet normal 0 0 1
    outer loop
      vertex -13.6941 2.91076 5
      vertex -12.7896 5.69431 5
      vertex -14.6722 3.11867 5
    endloop
  endfacet
  facet normal 0 0 1
    outer loop
      vertex -9.36783 -10.404 5
      vertex -11.3262 -8.22899 5
      vertex -10.037 -11.1472 5
    endloop
  endfacet
  facet normal 0 0 1
    outer loop
      vertex 12.7896 5.69431 5
      vertex 13.6941 2.91076 5
      vertex 14.6722 3.11867 5
    endloop
  endfacet
  facet normal 0 0 1
    outer loop
      vertex 11.3262 8.22899 5
      vertex 12.7896 5.69431 5
      vertex 13.7032 6.10105 5
    endloop
  endfacet
  facet normal 0 0 1
    outer loop
      vertex 9.36783 10.404 5
      vertex 11.3262 8.22899 5
      vertex 12.1353 8.81678 5
    endloop
  endfacet
  facet normal 0 0 1
    outer loop
      vertex 7 12.1244 5
      vertex 9.36783 10.404 5
      vertex 10.037 11.1472 5
    endloop
  endfacet
  facet normal 0 0 1
    outer loop
      vertex 4.32624 13.3148 5
      vertex 7 12.1244 5
      vertex 7.5 12.9904 5
    endloop
  endfacet
  facet normal 0 0 1
    outer loop
      vertex 1.4634 13.9233 5
      vertex 4.32624 13.3148 5
      vertex 4.63525 14.2658 5
    endloop
  endfacet
  facet normal 0 0 1
    outer loop
      vertex 13.6941 2.91076 5
      vertex 14 0 5
      vertex 15 0 5
    endloop
  endfacet
  facet normal 0 0 1
    outer loop
      vertex -7 12.1244 5
      vertex -4.32624 13.3148 5
      vertex -4.63525 14.2658 5
    endloop
  endfacet
  facet normal 0 0 1
    outer loop
      vertex -12.1353 8.81678 5
      vertex -14.6722 3.11867 5
      vertex -10.037 11.1472 5
    endloop
  endfacet
  facet normal 0 0 1
    outer loop
      vertex -13.7032 6.10105 5
      vertex -14.6722 3.11867 5
      vertex -12.1353 8.81678 5
    endloop
  endfacet
  facet normal 0 0 1
    outer loop
      vertex -12.1353 -8.81678 5
      vertex -13.6941 -2.91076 5
      vertex -13.7032 -6.10105 5
    endloop
  endfacet
  facet normal 0 0 1
    outer loop
      vertex 11.3262 -8.22899 5
      vertex 9.36783 -10.404 5
      vertex 12.1353 -8.81678 5
    endloop
  endfacet
  facet normal 0 0 1
    outer loop
      vertex 12.7896 -5.69431 5
      vertex 11.3262 -8.22899 5
      vertex 13.7032 -6.10105 5
    endloop
  endfacet
  facet normal 0 0 1
    outer loop
      vertex -4.32624 13.3148 5
      vertex -1.4634 13.9233 5
      vertex -1.56793 14.9178 5
    endloop
  endfacet
  facet normal 0 0 1
    outer loop
      vertex -11.3262 8.22899 5
      vertex -9.36783 10.404 5
      vertex -7.5 12.9904 5
    endloop
  endfacet
  facet normal 0 0 1
    outer loop
      vertex -10.037 11.1472 5
      vertex -11.3262 8.22899 5
      vertex -7.5 12.9904 5
    endloop
  endfacet
  facet normal 0 0 1
    outer loop
      vertex -10.037 11.1472 5
      vertex -14.6722 3.11867 5
      vertex -11.3262 8.22899 5
    endloop
  endfacet
  facet normal 0 0 1
    outer loop
      vertex -7.5 12.9904 5
      vertex -9.36783 10.404 5
      vertex -4.63525 14.2658 5
    endloop
  endfacet
  facet normal 0 0 1
    outer loop
      vertex -9.36783 10.404 5
      vertex -7 12.1244 5
      vertex -4.63525 14.2658 5
    endloop
  endfacet
  facet normal 0 0 1
    outer loop
      vertex -4.63525 14.2658 5
      vertex -4.32624 13.3148 5
      vertex -1.56793 14.9178 5
    endloop
  endfacet
  facet normal 0 0 1
    outer loop
      vertex -12.7896 5.69431 5
      vertex -11.3262 8.22899 5
      vertex -14.6722 3.11867 5
    endloop
  endfacet
  facet normal 0 0 1
    outer loop
      vertex -1.56793 14.9178 5
      vertex -1.4634 13.9233 5
      vertex 1.56793 14.9178 5
    endloop
  endfacet
  facet normal 0 0 1
    outer loop
      vertex 1.56793 14.9178 5
      vertex 1.4634 13.9233 5
      vertex 4.63525 14.2658 5
    endloop
  endfacet
  facet normal 0 0 1
    outer loop
      vertex 4.63525 14.2658 5
      vertex 4.32624 13.3148 5
      vertex 7.5 12.9904 5
    endloop
  endfacet
  facet normal 0 0 1
    outer loop
      vertex 7.5 12.9904 5
      vertex 7 12.1244 5
      vertex 10.037 11.1472 5
    endloop
  endfacet
  facet normal 0 0 1
    outer loop
      vertex 10.037 11.1472 5
      vertex 9.36783 10.404 5
      vertex 12.1353 8.81678 5
    endloop
  endfacet
  facet normal 0 0 1
    outer loop
      vertex 12.1353 8.81678 5
      vertex 11.3262 8.22899 5
      vertex 13.7032 6.10105 5
    endloop
  endfacet
  facet normal 0 0 1
    outer loop
      vertex 13.7032 6.10105 5
      vertex 12.7896 5.69431 5
      vertex 14.6722 3.11867 5
    endloop
  endfacet
  facet normal 0 0 1
    outer loop
      vertex 14.6722 3.11867 5
      vertex 13.6941 2.91076 5
      vertex 15 0 5
    endloop
  endfacet
  facet normal 0 0 1
    outer loop
      vertex 15 0 5
      vertex 14 0 5
      vertex 14.6722 -3.11867 5
    endloop
  endfacet
  facet normal 0 0 1
    outer loop
      vertex 14.6722 -3.11867 5
      vertex 13.6941 -2.91076 5
      vertex 13.7032 -6.10105 5
    endloop
  endfacet
  facet normal 0 0 1
    outer loop
      vertex -1.4634 13.9233 5
      vertex 1.4634 13.9233 5
      vertex 1.56793 14.9178 5
    endloop
  endfacet
  facet normal 0 0 1
    outer loop
      vertex 13.6941 -2.91076 5
      vertex 12.7896 -5.69431 5
      vertex 13.7032 -6.10105 5
    endloop
  endfacet
  facet normal 0 0 1
    outer loop
      vertex 13.7032 -6.10105 5
      vertex 11.3262 -8.22899 5
      vertex 12.1353 -8.81678 5
    endloop
  endfacet
  facet normal 0 0 1
    outer loop
      vertex 12.1353 -8.81678 5
      vertex 9.36783 -10.404 5
      vertex 10.037 -11.1472 5
    endloop
  endfacet
  facet normal 0 0 1
    outer loop
      vertex 10.037 -11.1472 5
      vertex 7 -12.1244 5
      vertex 7.5 -12.9904 5
    endloop
  endfacet
  facet normal 0 0 1
    outer loop
      vertex 7.5 -12.9904 5
      vertex 4.32624 -13.3148 5
      vertex 4.63525 -14.2658 5
    endloop
  endfacet
  facet normal 0 0 1
    outer loop
      vertex 4.63525 -14.2658 5
      vertex 1.4634 -13.9233 5
      vertex 1.56793 -14.9178 5
    endloop
  endfacet
  facet normal 0 0 1
    outer loop
      vertex 1.56793 -14.9178 5
      vertex -1.4634 -13.9233 5
      vertex -1.56793 -14.9178 5
    endloop
  endfacet
  facet normal 0 0 1
    outer loop
      vertex -1.56793 -14.9178 5
      vertex -4.32624 -13.3148 5
      vertex -4.63525 -14.2658 5
    endloop
  endfacet
  facet normal 0 0 1
    outer loop
      vertex -4.63525 -14.2658 5
      vertex -7 -12.1244 5
      vertex -7.5 -12.9904 5
    endloop
  endfacet
  facet normal 0 0 1
    outer loop
      vertex 14 0 5
      vertex 13.6941 -2.91076 5
      vertex 14.6722 -3.11867 5
    endloop
  endfacet
  facet normal 0 0 1
    outer loop
      vertex -7.5 -12.9904 5
      vertex -9.36783 -10.404 5
      vertex -10.037 -11.1472 5
    endloop
  endfacet
  facet normal 0 0 1
    outer loop
      vertex -10.037 -11.1472 5
      vertex -11.3262 -8.22899 5
      vertex -12.1353 -8.81678 5
    endloop
  endfacet
  facet normal 0 0 1
    outer loop
      vertex -11.3262 -8.22899 5
      vertex -12.7896 -5.69431 5
      vertex -12.1353 -8.81678 5
    endloop
  endfacet
  facet normal 0 0 1
    outer loop
      vertex -13.6941 -2.91076 5
      vertex -14 0 5
      vertex -14.6722 3.11867 5
    endloop
  endfacet
  facet normal 0 0 1
    outer loop
      vertex -12.7896 -5.69431 5
      vertex -13.6941 -2.91076 5
      vertex -12.1353 -8.81678 5
    endloop
  endfacet
  facet normal 0 0 1
    outer loop
      vertex 9.36783 -10.404 5
      vertex 7 -12.1244 5
      vertex 10.037 -11.1472 5
    endloop
  endfacet
  facet normal 0 0 1
    outer loop
      vertex 7 -12.1244 5
      vertex 4.32624 -13.3148 5
      vertex 7.5 -12.9904 5
    endloop
  endfacet
  facet normal 0 0 1
    outer loop
      vertex 4.32624 -13.3148 5
      vertex 1.4634 -13.9233 5
      vertex 4.63525 -14.2658 5
    endloop
  endfacet
  facet normal 0 0 1
    outer loop
      vertex 1.4634 -13.9233 5
      vertex -1.4634 -13.9233 5
      vertex 1.56793 -14.9178 5
    endloop
  endfacet
  facet normal 0 0 1
    outer loop
      vertex -1.4634 -13.9233 5
      vertex -4.32624 -13.3148 5
      vertex -1.56793 -14.9178 5
    endloop
  endfacet
  facet normal 0 0 1
    outer loop
      vertex -4.32624 -13.3148 5
      vertex -7 -12.1244 5
      vertex -4.63525 -14.2658 5
    endloop
  endfacet
  facet normal 0 0 1
    outer loop
      vertex -7 -12.1244 5
      vertex -9.36783 -10.404 5
      vertex -7.5 -12.9904 5
    endloop
  endfacet
  facet normal 0 0 1
    outer loop
      vertex -14 0 5
      vertex -13.6941 2.91076 5
      vertex -14.6722 3.11867 5
    endloop
  endfacet
  facet normal 0.994522 0.104529 0
    outer loop
      vertex 24 0 3
      vertex 23.4755 4.98988 3
      vertex 23.4755 4.98988 5
    endloop
  endfacet
  facet normal 0.994522 0.104529 0
    outer loop
      vertex 24 0 5
      vertex 24 0 3
      vertex 23.4755 4.98988 5
    endloop
  endfacet
  facet normal 0.994522 -0.104529 0
    outer loop
      vertex 23.4755 -4.98988 5
      vertex 23.4755 -4.98988 3
      vertex 24 0 3
    endloop
  endfacet
  facet normal 0.994522 -0.104529 0
    outer loop
      vertex 24 0 5
      vertex 23.4755 -4.98988 5
      vertex 24 0 3
    endloop
  endfacet
  facet normal 0.994522 0.104528 0
    outer loop
      vertex -23 0 5
      vertex -22.4974 -4.78197 5
      vertex -22.4974 -4.78197 2
    endloop
  endfacet
  facet normal 0.994522 0.104528 0
    outer loop
      vertex -23 0 2
      vertex -23 0 5
      vertex -22.4974 -4.78197 2
    endloop
  endfacet
  facet normal 0.951057 0.309017 0
    outer loop
      vertex -22.4974 -4.78197 5
      vertex -21.0115 -9.35494 5
      vertex -21.0115 -9.35494 2
    endloop
  endfacet
  facet normal 0.951057 0.309017 0
    outer loop
      vertex -22.4974 -4.78197 2
      vertex -22.4974 -4.78197 5
      vertex -21.0115 -9.35494 2
    endloop
  endfacet
  facet normal 0.866025 0.5 0
    outer loop
      vertex -21.0115 -9.35494 5
      vertex -18.6074 -13.5191 5
      vertex -18.6074 -13.5191 2
    endloop
  endfacet
  facet normal 0.866025 0.5 0
    outer loop
      vertex -21.0115 -9.35494 2
      vertex -21.0115 -9.35494 5
      vertex -18.6074 -13.5191 2
    endloop
  endfacet
  facet normal 0.743145 0.669131 0
    outer loop
      vertex -18.6074 -13.5191 5
      vertex -15.39 -17.0923 5
      vertex -15.39 -17.0923 2
    endloop
  endfacet
  facet normal 0.743145 0.669131 0
    outer loop
      vertex -18.6074 -13.5191 2
      vertex -18.6074 -13.5191 5
      vertex -15.39 -17.0923 2
    endloop
  endfacet
  facet normal 0.587785 0.809017 0
    outer loop
      vertex -11.5 -19.9186 5
      vertex -11.5 -19.9186 2
      vertex -15.39 -17.0923 5
    endloop
  endfacet
  facet normal 0.587785 0.809017 0
    outer loop
      vertex -15.39 -17.0923 5
      vertex -11.5 -19.9186 2
      vertex -15.39 -17.0923 2
    endloop
  endfacet
  facet normal 0.406737 0.913545 0
    outer loop
      vertex -7.10739 -21.8743 5
      vertex -7.10739 -21.8743 2
      vertex -11.5 -19.9186 5
    endloop
  endfacet
  facet normal 0.406737 0.913545 0
    outer loop
      vertex -11.5 -19.9186 5
      vertex -7.10739 -21.8743 2
      vertex -11.5 -19.9186 2
    endloop
  endfacet
  facet normal 0.207912 0.978148 0
    outer loop
      vertex -2.40415 -22.874 5
      vertex -2.40415 -22.874 2
      vertex -7.10739 -21.8743 5
    endloop
  endfacet
  facet normal 0.207912 0.978148 0
    outer loop
      vertex -7.10739 -21.8743 5
      vertex -2.40415 -22.874 2
      vertex -7.10739 -21.8743 2
    endloop
  endfacet
  facet normal 0 1 0
    outer loop
      vertex 2.40415 -22.874 5
      vertex 2.40415 -22.874 2
      vertex -2.40415 -22.874 5
    endloop
  endfacet
  facet normal 0 1 0
    outer loop
      vertex -2.40415 -22.874 5
      vertex 2.40415 -22.874 2
      vertex -2.40415 -22.874 2
    endloop
  endfacet
  facet normal -0.207912 0.978148 0
    outer loop
      vertex 7.10739 -21.8743 5
      vertex 7.10739 -21.8743 2
      vertex 2.40415 -22.874 5
    endloop
  endfacet
  facet normal -0.207912 0.978148 0
    outer loop
      vertex 2.40415 -22.874 5
      vertex 7.10739 -21.8743 2
      vertex 2.40415 -22.874 2
    endloop
  endfacet
  facet normal -0.406737 0.913545 0
    outer loop
      vertex 11.5 -19.9186 5
      vertex 11.5 -19.9186 2
      vertex 7.10739 -21.8743 5
    endloop
  endfacet
  facet normal -0.406737 0.913545 0
    outer loop
      vertex 7.10739 -21.8743 5
      vertex 11.5 -19.9186 2
      vertex 7.10739 -21.8743 2
    endloop
  endfacet
  facet normal -0.587785 0.809017 0
    outer loop
      vertex 15.39 -17.0923 5
      vertex 15.39 -17.0923 2
      vertex 11.5 -19.9186 5
    endloop
  endfacet
  facet normal -0.587785 0.809017 0
    outer loop
      vertex 11.5 -19.9186 5
      vertex 15.39 -17.0923 2
      vertex 11.5 -19.9186 2
    endloop
  endfacet
  facet normal -0.743145 0.669131 0
    outer loop
      vertex 18.6074 -13.5191 5
      vertex 18.6074 -13.5191 2
      vertex 15.39 -17.0923 5
    endloop
  endfacet
  facet normal -0.743145 0.669131 0
    outer loop
      vertex 15.39 -17.0923 5
      vertex 18.6074 -13.5191 2
      vertex 15.39 -17.0923 2
    endloop
  endfacet
  facet normal -0.866025 0.5 0
    outer loop
      vertex 21.0115 -9.35494 5
      vertex 21.0115 -9.35494 2
      vertex 18.6074 -13.5191 5
    endloop
  endfacet
  facet normal -0.866025 0.5 0
    outer loop
      vertex 18.6074 -13.5191 5
      vertex 21.0115 -9.35494 2
      vertex 18.6074 -13.5191 2
    endloop
  endfacet
  facet normal -0.951057 0.309017 0
    outer loop
      vertex 22.4974 -4.78197 5
      vertex 22.4974 -4.78197 2
      vertex 21.0115 -9.35494 5
    endloop
  endfacet
  facet normal -0.951057 0.309017 0
    outer loop
      vertex 21.0115 -9.35494 5
      vertex 22.4974 -4.78197 2
      vertex 21.0115 -9.35494 2
    endloop
  endfacet
  facet normal -0.994522 0.104528 0
    outer loop
      vertex 23 0 5
      vertex 23 0 2
      vertex 22.4974 -4.78197 5
    endloop
  endfacet
  facet normal -0.994522 0.104528 0
    outer loop
      vertex 22.4974 -4.78197 5
      vertex 23 0 2
      vertex 22.4974 -4.78197 2
    endloop
  endfacet
  facet normal -0.994522 -0.104528 0
    outer loop
      vertex 23 0 5
      vertex 22.4974 4.78197 5
      vertex 23 0 2
    endloop
  endfacet
  facet normal -0.994522 -0.104528 0
    outer loop
      vertex 23 0 2
      vertex 22.4974 4.78197 5
      vertex 22.4974 4.78197 2
    endloop
  endfacet
  facet normal -0.951057 -0.309017 0
    outer loop
      vertex 22.4974 4.78197 5
      vertex 21.0115 9.35494 5
      vertex 22.4974 4.78197 2
    endloop
  endfacet
  facet normal -0.951057 -0.309017 0
    outer loop
      vertex 22.4974 4.78197 2
      vertex 21.0115 9.35494 5
      vertex 21.0115 9.35494 2
    endloop
  endfacet
  facet normal -0.866025 -0.5 0
    outer loop
      vertex 21.0115 9.35494 5
      vertex 18.6074 13.5191 5
      vertex 21.0115 9.35494 2
    endloop
  endfacet
  facet normal -0.866025 -0.5 0
    outer loop
      vertex 21.0115 9.35494 2
      vertex 18.6074 13.5191 5
      vertex 18.6074 13.5191 2
    endloop
  endfacet
  facet normal -0.743145 -0.669131 0
    outer loop
      vertex 18.6074 13.5191 5
      vertex 15.39 17.0923 5
      vertex 18.6074 13.5191 2
    endloop
  endfacet
  facet normal -0.743145 -0.669131 0
    outer loop
      vertex 18.6074 13.5191 2
      vertex 15.39 17.0923 5
      vertex 15.39 17.0923 2
    endloop
  endfacet
  facet normal -0.587785 -0.809017 0
    outer loop
      vertex 15.39 17.0923 2
      vertex 15.39 17.0923 5
      vertex 11.5 19.9186 5
    endloop
  endfacet
  facet normal -0.587785 -0.809017 0
    outer loop
      vertex 11.5 19.9186 2
      vertex 15.39 17.0923 2
      vertex 11.5 19.9186 5
    endloop
  endfacet
  facet normal -0.406737 -0.913545 0
    outer loop
      vertex 11.5 19.9186 2
      vertex 11.5 19.9186 5
      vertex 7.10739 21.8743 5
    endloop
  endfacet
  facet normal -0.406737 -0.913545 0
    outer loop
      vertex 7.10739 21.8743 2
      vertex 11.5 19.9186 2
      vertex 7.10739 21.8743 5
    endloop
  endfacet
  facet normal -0.207912 -0.978148 0
    outer loop
      vertex 7.10739 21.8743 2
      vertex 7.10739 21.8743 5
      vertex 2.40415 22.874 5
    endloop
  endfacet
  facet normal -0.207912 -0.978148 0
    outer loop
      vertex 2.40415 22.874 2
      vertex 7.10739 21.8743 2
      vertex 2.40415 22.874 5
    endloop
  endfacet
  facet normal 0 -1 0
    outer loop
      vertex 2.40415 22.874 2
      vertex 2.40415 22.874 5
      vertex -2.40415 22.874 5
    endloop
  endfacet
  facet normal 0 -1 0
    outer loop
      vertex -2.40415 22.874 2
      vertex 2.40415 22.874 2
      vertex -2.40415 22.874 5
    endloop
  endfacet
  facet normal 0.207912 -0.978148 0
    outer loop
      vertex -2.40415 22.874 2
      vertex -2.40415 22.874 5
      vertex -7.10739 21.8743 5
    endloop
  endfacet
  facet normal 0.207912 -0.978148 0
    outer loop
      vertex -7.10739 21.8743 2
      vertex -2.40415 22.874 2
      vertex -7.10739 21.8743 5
    endloop
  endfacet
  facet normal 0.406737 -0.913545 0
    outer loop
      vertex -7.10739 21.8743 2
      vertex -7.10739 21.8743 5
      vertex -11.5 19.9186 5
    endloop
  endfacet
  facet normal 0.406737 -0.913545 0
    outer loop
      vertex -11.5 19.9186 2
      vertex -7.10739 21.8743 2
      vertex -11.5 19.9186 5
    endloop
  endfacet
  facet normal 0.587785 -0.809017 0
    outer loop
      vertex -11.5 19.9186 2
      vertex -11.5 19.9186 5
      vertex -15.39 17.0923 5
    endloop
  endfacet
  facet normal 0.587785 -0.809017 0
    outer loop
      vertex -15.39 17.0923 2
      vertex -11.5 19.9186 2
      vertex -15.39 17.0923 5
    endloop
  endfacet
  facet normal 0.743145 -0.669131 0
    outer loop
      vertex -15.39 17.0923 2
      vertex -15.39 17.0923 5
      vertex -18.6074 13.5191 5
    endloop
  endfacet
  facet normal 0.743145 -0.669131 0
    outer loop
      vertex -18.6074 13.5191 2
      vertex -15.39 17.0923 2
      vertex -18.6074 13.5191 5
    endloop
  endfacet
  facet normal 0.866025 -0.5 0
    outer loop
      vertex -18.6074 13.5191 2
      vertex -18.6074 13.5191 5
      vertex -21.0115 9.35494 5
    endloop
  endfacet
  facet normal 0.866025 -0.5 0
    outer loop
      vertex -21.0115 9.35494 2
      vertex -18.6074 13.5191 2
      vertex -21.0115 9.35494 5
    endloop
  endfacet
  facet normal 0.951057 -0.309017 0
    outer loop
      vertex -21.0115 9.35494 2
      vertex -21.0115 9.35494 5
      vertex -22.4974 4.78197 5
    endloop
  endfacet
  facet normal 0.951057 -0.309017 0
    outer loop
      vertex -22.4974 4.78197 2
      vertex -21.0115 9.35494 2
      vertex -22.4974 4.78197 5
    endloop
  endfacet
  facet normal 0.994522 -0.104528 0
    outer loop
      vertex -22.4974 4.78197 2
      vertex -22.4974 4.78197 5
      vertex -23 0 5
    endloop
  endfacet
  facet normal 0.994522 -0.104528 0
    outer loop
      vertex -23 0 2
      vertex -22.4974 4.78197 2
      vertex -23 0 5
    endloop
  endfacet
  facet normal -0.994522 0.104528 0
    outer loop
      vertex -15 0 2
      vertex -15 0 5
      vertex -14.6722 3.11867 2
    endloop
  endfacet
  facet normal -0.994522 0.104528 0
    outer loop
      vertex -14.6722 3.11867 2
      vertex -15 0 5
      vertex -14.6722 3.11867 5
    endloop
  endfacet
  facet normal -0.951057 0.309017 0
    outer loop
      vertex -14.6722 3.11867 2
      vertex -14.6722 3.11867 5
      vertex -13.7032 6.10105 2
    endloop
  endfacet
  facet normal -0.951057 0.309017 0
    outer loop
      vertex -13.7032 6.10105 2
      vertex -14.6722 3.11867 5
      vertex -13.7032 6.10105 5
    endloop
  endfacet
  facet normal -0.866025 0.5 0
    outer loop
      vertex -13.7032 6.10105 2
      vertex -13.7032 6.10105 5
      vertex -12.1353 8.81678 2
    endloop
  endfacet
  facet normal -0.866025 0.5 0
    outer loop
      vertex -12.1353 8.81678 2
      vertex -13.7032 6.10105 5
      vertex -12.1353 8.81678 5
    endloop
  endfacet
  facet normal -0.743145 0.669131 0
    outer loop
      vertex -12.1353 8.81678 2
      vertex -12.1353 8.81678 5
      vertex -10.037 11.1472 2
    endloop
  endfacet
  facet normal -0.743145 0.669131 0
    outer loop
      vertex -10.037 11.1472 2
      vertex -12.1353 8.81678 5
      vertex -10.037 11.1472 5
    endloop
  endfacet
  facet normal -0.587785 0.809017 0
    outer loop
      vertex -10.037 11.1472 2
      vertex -10.037 11.1472 5
      vertex -7.5 12.9904 2
    endloop
  endfacet
  facet normal -0.587785 0.809017 0
    outer loop
      vertex -7.5 12.9904 2
      vertex -10.037 11.1472 5
      vertex -7.5 12.9904 5
    endloop
  endfacet
  facet normal -0.406737 0.913545 0
    outer loop
      vertex -7.5 12.9904 2
      vertex -7.5 12.9904 5
      vertex -4.63525 14.2658 2
    endloop
  endfacet
  facet normal -0.406737 0.913545 0
    outer loop
      vertex -4.63525 14.2658 2
      vertex -7.5 12.9904 5
      vertex -4.63525 14.2658 5
    endloop
  endfacet
  facet normal -0.207911 0.978148 0
    outer loop
      vertex -4.63525 14.2658 2
      vertex -4.63525 14.2658 5
      vertex -1.56793 14.9178 2
    endloop
  endfacet
  facet normal -0.207911 0.978148 0
    outer loop
      vertex -1.56793 14.9178 2
      vertex -4.63525 14.2658 5
      vertex -1.56793 14.9178 5
    endloop
  endfacet
  facet normal 0 1 0
    outer loop
      vertex -1.56793 14.9178 2
      vertex -1.56793 14.9178 5
      vertex 1.56793 14.9178 2
    endloop
  endfacet
  facet normal 0 1 0
    outer loop
      vertex 1.56793 14.9178 2
      vertex -1.56793 14.9178 5
      vertex 1.56793 14.9178 5
    endloop
  endfacet
  facet normal 0.207911 0.978148 0
    outer loop
      vertex 1.56793 14.9178 2
      vertex 1.56793 14.9178 5
      vertex 4.63525 14.2658 2
    endloop
  endfacet
  facet normal 0.207911 0.978148 0
    outer loop
      vertex 4.63525 14.2658 2
      vertex 1.56793 14.9178 5
      vertex 4.63525 14.2658 5
    endloop
  endfacet
  facet normal 0.406737 0.913545 0
    outer loop
      vertex 4.63525 14.2658 2
      vertex 4.63525 14.2658 5
      vertex 7.5 12.9904 2
    endloop
  endfacet
  facet normal 0.406737 0.913545 0
    outer loop
      vertex 7.5 12.9904 2
      vertex 4.63525 14.2658 5
      vertex 7.5 12.9904 5
    endloop
  endfacet
  facet normal 0.587785 0.809017 0
    outer loop
      vertex 7.5 12.9904 2
      vertex 7.5 12.9904 5
      vertex 10.037 11.1472 2
    endloop
  endfacet
  facet normal 0.587785 0.809017 0
    outer loop
      vertex 10.037 11.1472 2
      vertex 7.5 12.9904 5
      vertex 10.037 11.1472 5
    endloop
  endfacet
  facet normal 0.743145 0.669131 0
    outer loop
      vertex 12.1353 8.81678 2
      vertex 10.037 11.1472 2
      vertex 10.037 11.1472 5
    endloop
  endfacet
  facet normal 0.743145 0.669131 0
    outer loop
      vertex 12.1353 8.81678 5
      vertex 12.1353 8.81678 2
      vertex 10.037 11.1472 5
    endloop
  endfacet
  facet normal 0.866025 0.5 0
    outer loop
      vertex 13.7032 6.10105 2
      vertex 12.1353 8.81678 2
      vertex 12.1353 8.81678 5
    endloop
  endfacet
  facet normal 0.866025 0.5 0
    outer loop
      vertex 13.7032 6.10105 5
      vertex 13.7032 6.10105 2
      vertex 12.1353 8.81678 5
    endloop
  endfacet
  facet normal 0.951057 0.309017 0
    outer loop
      vertex 14.6722 3.11867 2
      vertex 13.7032 6.10105 2
      vertex 13.7032 6.10105 5
    endloop
  endfacet
  facet normal 0.951057 0.309017 0
    outer loop
      vertex 14.6722 3.11867 5
      vertex 14.6722 3.11867 2
      vertex 13.7032 6.10105 5
    endloop
  endfacet
  facet normal 0.994522 0.104528 0
    outer loop
      vertex 15 0 2
      vertex 14.6722 3.11867 2
      vertex 14.6722 3.11867 5
    endloop
  endfacet
  facet normal 0.994522 0.104528 0
    outer loop
      vertex 15 0 5
      vertex 15 0 2
      vertex 14.6722 3.11867 5
    endloop
  endfacet
  facet normal 0.994522 -0.104528 0
    outer loop
      vertex 14.6722 -3.11867 5
      vertex 14.6722 -3.11867 2
      vertex 15 0 2
    endloop
  endfacet
  facet normal 0.994522 -0.104528 0
    outer loop
      vertex 15 0 5
      vertex 14.6722 -3.11867 5
      vertex 15 0 2
    endloop
  endfacet
  facet normal 0.951057 -0.309017 0
    outer loop
      vertex 13.7032 -6.10105 5
      vertex 13.7032 -6.10105 2
      vertex 14.6722 -3.11867 2
    endloop
  endfacet
  facet normal 0.951057 -0.309017 0
    outer loop
      vertex 14.6722 -3.11867 5
      vertex 13.7032 -6.10105 5
      vertex 14.6722 -3.11867 2
    endloop
  endfacet
  facet normal 0.866025 -0.5 0
    outer loop
      vertex 12.1353 -8.81678 5
      vertex 12.1353 -8.81678 2
      vertex 13.7032 -6.10105 2
    endloop
  endfacet
  facet normal 0.866025 -0.5 0
    outer loop
      vertex 13.7032 -6.10105 5
      vertex 12.1353 -8.81678 5
      vertex 13.7032 -6.10105 2
    endloop
  endfacet
  facet normal 0.743145 -0.669131 0
    outer loop
      vertex 10.037 -11.1472 5
      vertex 10.037 -11.1472 2
      vertex 12.1353 -8.81678 2
    endloop
  endfacet
  facet normal 0.743145 -0.669131 0
    outer loop
      vertex 12.1353 -8.81678 5
      vertex 10.037 -11.1472 5
      vertex 12.1353 -8.81678 2
    endloop
  endfacet
  facet normal 0.587785 -0.809017 0
    outer loop
      vertex 7.5 -12.9904 5
      vertex 7.5 -12.9904 2
      vertex 10.037 -11.1472 2
    endloop
  endfacet
  facet normal 0.587785 -0.809017 0
    outer loop
      vertex 10.037 -11.1472 5
      vertex 7.5 -12.9904 5
      vertex 10.037 -11.1472 2
    endloop
  endfacet
  facet normal 0.406737 -0.913545 0
    outer loop
      vertex 4.63525 -14.2658 5
      vertex 4.63525 -14.2658 2
      vertex 7.5 -12.9904 2
    endloop
  endfacet
  facet normal 0.406737 -0.913545 0
    outer loop
      vertex 7.5 -12.9904 5
      vertex 4.63525 -14.2658 5
      vertex 7.5 -12.9904 2
    endloop
  endfacet
  facet normal 0.207911 -0.978148 0
    outer loop
      vertex 1.56793 -14.9178 5
      vertex 1.56793 -14.9178 2
      vertex 4.63525 -14.2658 2
    endloop
  endfacet
  facet normal 0.207911 -0.978148 0
    outer loop
      vertex 4.63525 -14.2658 5
      vertex 1.56793 -14.9178 5
      vertex 4.63525 -14.2658 2
    endloop
  endfacet
  facet normal 0 -1 0
    outer loop
      vertex -1.56793 -14.9178 5
      vertex -1.56793 -14.9178 2
      vertex 1.56793 -14.9178 2
    endloop
  endfacet
  facet normal 0 -1 0
    outer loop
      vertex 1.56793 -14.9178 5
      vertex -1.56793 -14.9178 5
      vertex 1.56793 -14.9178 2
    endloop
  endfacet
  facet normal -0.207911 -0.978148 0
    outer loop
      vertex -4.63525 -14.2658 5
      vertex -4.63525 -14.2658 2
      vertex -1.56793 -14.9178 2
    endloop
  endfacet
  facet normal -0.207911 -0.978148 0
    outer loop
      vertex -1.56793 -14.9178 5
      vertex -4.63525 -14.2658 5
      vertex -1.56793 -14.9178 2
    endloop
  endfacet
  facet normal -0.406737 -0.913545 0
    outer loop
      vertex -7.5 -12.9904 5
      vertex -7.5 -12.9904 2
      vertex -4.63525 -14.2658 2
    endloop
  endfacet
  facet normal -0.406737 -0.913545 0
    outer loop
      vertex -4.63525 -14.2658 5
      vertex -7.5 -12.9904 5
      vertex -4.63525 -14.2658 2
    endloop
  endfacet
  facet normal -0.587785 -0.809017 0
    outer loop
      vertex -10.037 -11.1472 5
      vertex -10.037 -11.1472 2
      vertex -7.5 -12.9904 2
    endloop
  endfacet
  facet normal -0.587785 -0.809017 0
    outer loop
      vertex -7.5 -12.9904 5
      vertex -10.037 -11.1472 5
      vertex -7.5 -12.9904 2
    endloop
  endfacet
  facet normal -0.743145 -0.669131 0
    outer loop
      vertex -12.1353 -8.81678 2
      vertex -10.037 -11.1472 2
      vertex -12.1353 -8.81678 5
    endloop
  endfacet
  facet normal -0.743145 -0.669131 0
    outer loop
      vertex -12.1353 -8.81678 5
      vertex -10.037 -11.1472 2
      vertex -10.037 -11.1472 5
    endloop
  endfacet
  facet normal -0.866025 -0.5 0
    outer loop
      vertex -13.7032 -6.10105 2
      vertex -12.1353 -8.81678 2
      vertex -13.7032 -6.10105 5
    endloop
  endfacet
  facet normal -0.866025 -0.5 0
    outer loop
      vertex -13.7032 -6.10105 5
      vertex -12.1353 -8.81678 2
      vertex -12.1353 -8.81678 5
    endloop
  endfacet
  facet normal -0.951057 -0.309017 0
    outer loop
      vertex -14.6722 -3.11867 2
      vertex -13.7032 -6.10105 2
      vertex -14.6722 -3.11867 5
    endloop
  endfacet
  facet normal -0.951057 -0.309017 0
    outer loop
      vertex -14.6722 -3.11867 5
      vertex -13.7032 -6.10105 2
      vertex -13.7032 -6.10105 5
    endloop
  endfacet
  facet normal -0.994522 -0.104528 0
    outer loop
      vertex -15 0 2
      vertex -14.6722 -3.11867 2
      vertex -15 0 5
    endloop
  endfacet
  facet normal -0.994522 -0.104528 0
    outer loop
      vertex -15 0 5
      vertex -14.6722 -3.11867 2
      vertex -14.6722 -3.11867 5
    endloop
  endfacet
  facet normal 0 0 1
    outer loop
      vertex -22.4974 -4.78197 2
      vertex -21.0115 -9.35494 2
      vertex -18.6074 -13.5191 2
    endloop
  endfacet
  facet normal 0 0 1
    outer loop
      vertex -11.5 -19.9186 2
      vertex -22.4974 -4.78197 2
      vertex -15.39 -17.0923 2
    endloop
  endfacet
  facet normal 0 0 1
    outer loop
      vertex -15.39 -17.0923 2
      vertex -22.4974 -4.78197 2
      vertex -18.6074 -13.5191 2
    endloop
  endfacet
  facet normal 0 0 1
    outer loop
      vertex -7.10739 -21.8743 2
      vertex -22.4974 -4.78197 2
      vertex -11.5 -19.9186 2
    endloop
  endfacet
  facet normal 0 0 1
    outer loop
      vertex -2.40415 -22.874 2
      vertex -22.4974 -4.78197 2
      vertex -7.10739 -21.8743 2
    endloop
  endfacet
  facet normal 0 0 1
    outer loop
      vertex 2.40415 -22.874 2
      vertex -22.4974 -4.78197 2
      vertex -2.40415 -22.874 2
    endloop
  endfacet
  facet normal 0 0 1
    outer loop
      vertex 7.10739 -21.8743 2
      vertex -22.4974 -4.78197 2
      vertex 2.40415 -22.874 2
    endloop
  endfacet
  facet normal 0 0 1
    outer loop
      vertex -7.5 -12.9904 2
      vertex -22.4974 -4.78197 2
      vertex 7.10739 -21.8743 2
    endloop
  endfacet
  facet normal 0 0 1
    outer loop
      vertex -7.5 -12.9904 2
      vertex -10.037 -11.1472 2
      vertex -22.4974 -4.78197 2
    endloop
  endfacet
  facet normal 0 0 1
    outer loop
      vertex 1.56793 -14.9178 2
      vertex -1.56793 -14.9178 2
      vertex 11.5 -19.9186 2
    endloop
  endfacet
  facet normal 0 0 1
    outer loop
      vertex 7.5 -12.9904 2
      vertex 4.63525 -14.2658 2
      vertex 15.39 -17.0923 2
    endloop
  endfacet
  facet normal 0 0 1
    outer loop
      vertex 10.037 -11.1472 2
      vertex 7.5 -12.9904 2
      vertex 18.6074 -13.5191 2
    endloop
  endfacet
  facet normal 0 0 1
    outer loop
      vertex 13.7032 -6.10105 2
      vertex 12.1353 -8.81678 2
      vertex 21.0115 -9.35494 2
    endloop
  endfacet
  facet normal 0 0 1
    outer loop
      vertex 14.6722 -3.11867 2
      vertex 13.7032 -6.10105 2
      vertex 22.4974 -4.78197 2
    endloop
  endfacet
  facet normal 0 0 1
    outer loop
      vertex 15 0 2
      vertex 14.6722 -3.11867 2
      vertex 23 0 2
    endloop
  endfacet
  facet normal 0 0 1
    outer loop
      vertex 7.5 12.9904 2
      vertex 10.037 11.1472 2
      vertex 15.39 17.0923 2
    endloop
  endfacet
  facet normal 0 0 1
    outer loop
      vertex -7.5 12.9904 2
      vertex -4.63525 14.2658 2
      vertex 2.40415 22.874 2
    endloop
  endfacet
  facet normal 0 0 1
    outer loop
      vertex -1.56793 14.9178 2
      vertex 1.56793 14.9178 2
      vertex 7.10739 21.8743 2
    endloop
  endfacet
  facet normal 0 0 1
    outer loop
      vertex -7.10739 21.8743 2
      vertex -22.4974 -4.78197 2
      vertex -2.40415 22.874 2
    endloop
  endfacet
  facet normal 0 0 1
    outer loop
      vertex -11.5 19.9186 2
      vertex -22.4974 -4.78197 2
      vertex -7.10739 21.8743 2
    endloop
  endfacet
  facet normal 0 0 1
    outer loop
      vertex -15.39 17.0923 2
      vertex -22.4974 -4.78197 2
      vertex -11.5 19.9186 2
    endloop
  endfacet
  facet normal 0 0 1
    outer loop
      vertex -18.6074 13.5191 2
      vertex -22.4974 -4.78197 2
      vertex -15.39 17.0923 2
    endloop
  endfacet
  facet normal 0 0 1
    outer loop
      vertex -21.0115 9.35494 2
      vertex -22.4974 -4.78197 2
      vertex -18.6074 13.5191 2
    endloop
  endfacet
  facet normal 0 0 1
    outer loop
      vertex -22.4974 4.78197 2
      vertex -22.4974 -4.78197 2
      vertex -21.0115 9.35494 2
    endloop
  endfacet
  facet normal 0 0 1
    outer loop
      vertex -23 0 2
      vertex -22.4974 -4.78197 2
      vertex -22.4974 4.78197 2
    endloop
  endfacet
  facet normal 0 0 1
    outer loop
      vertex 10.037 11.1472 2
      vertex 12.1353 8.81678 2
      vertex 18.6074 13.5191 2
    endloop
  endfacet
  facet normal 0 0 1
    outer loop
      vertex -12.1353 -8.81678 2
      vertex -13.7032 -6.10105 2
      vertex -22.4974 -4.78197 2
    endloop
  endfacet
  facet normal 0 0 1
    outer loop
      vertex -12.1353 8.81678 2
      vertex -10.037 11.1472 2
      vertex -2.40415 22.874 2
    endloop
  endfacet
  facet normal 0 0 1
    outer loop
      vertex 1.56793 14.9178 2
      vertex 4.63525 14.2658 2
      vertex 11.5 19.9186 2
    endloop
  endfacet
  facet normal 0 0 1
    outer loop
      vertex -12.1353 8.81678 2
      vertex -22.4974 -4.78197 2
      vertex -13.7032 6.10105 2
    endloop
  endfacet
  facet normal 0 0 1
    outer loop
      vertex -2.40415 22.874 2
      vertex -22.4974 -4.78197 2
      vertex -12.1353 8.81678 2
    endloop
  endfacet
  facet normal 0 0 1
    outer loop
      vertex -2.40415 22.874 2
      vertex -10.037 11.1472 2
      vertex 2.40415 22.874 2
    endloop
  endfacet
  facet normal 0 0 1
    outer loop
      vertex -10.037 11.1472 2
      vertex -7.5 12.9904 2
      vertex 2.40415 22.874 2
    endloop
  endfacet
  facet normal 0 0 1
    outer loop
      vertex 2.40415 22.874 2
      vertex -4.63525 14.2658 2
      vertex 7.10739 21.8743 2
    endloop
  endfacet
  facet normal 0 0 1
    outer loop
      vertex -4.63525 14.2658 2
      vertex -1.56793 14.9178 2
      vertex 7.10739 21.8743 2
    endloop
  endfacet
  facet normal 0 0 1
    outer loop
      vertex 7.10739 21.8743 2
      vertex 1.56793 14.9178 2
      vertex 11.5 19.9186 2
    endloop
  endfacet
  facet normal 0 0 1
    outer loop
      vertex -14.6722 3.11867 2
      vertex -13.7032 6.10105 2
      vertex -22.4974 -4.78197 2
    endloop
  endfacet
  facet normal 0 0 1
    outer loop
      vertex 11.5 19.9186 2
      vertex 4.63525 14.2658 2
      vertex 15.39 17.0923 2
    endloop
  endfacet
  facet normal 0 0 1
    outer loop
      vertex 4.63525 14.2658 2
      vertex 7.5 12.9904 2
      vertex 15.39 17.0923 2
    endloop
  endfacet
  facet normal 0 0 1
    outer loop
      vertex 15.39 17.0923 2
      vertex 10.037 11.1472 2
      vertex 18.6074 13.5191 2
    endloop
  endfacet
  facet normal 0 0 1
    outer loop
      vertex 13.7032 6.10105 2
      vertex 14.6722 3.11867 2
      vertex 22.4974 4.78197 2
    endloop
  endfacet
  facet normal 0 0 1
    outer loop
      vertex 18.6074 13.5191 2
      vertex 12.1353 8.81678 2
      vertex 21.0115 9.35494 2
    endloop
  endfacet
  facet normal 0 0 1
    outer loop
      vertex -15 0 2
      vertex -14.6722 3.11867 2
      vertex -22.4974 -4.78197 2
    endloop
  endfacet
  facet normal 0 0 1
    outer loop
      vertex 21.0115 9.35494 2
      vertex 13.7032 6.10105 2
      vertex 22.4974 4.78197 2
    endloop
  endfacet
  facet normal 0 0 1
    outer loop
      vertex -13.7032 -6.10105 2
      vertex -14.6722 -3.11867 2
      vertex -22.4974 -4.78197 2
    endloop
  endfacet
  facet normal 0 0 1
    outer loop
      vertex 22.4974 4.78197 2
      vertex 14.6722 3.11867 2
      vertex 23 0 2
    endloop
  endfacet
  facet normal 0 0 1
    outer loop
      vertex 14.6722 3.11867 2
      vertex 15 0 2
      vertex 23 0 2
    endloop
  endfacet
  facet normal 0 0 1
    outer loop
      vertex 23 0 2
      vertex 14.6722 -3.11867 2
      vertex 22.4974 -4.78197 2
    endloop
  endfacet
  facet normal 0 0 1
    outer loop
      vertex 22.4974 -4.78197 2
      vertex 13.7032 -6.10105 2
      vertex 21.0115 -9.35494 2
    endloop
  endfacet
  facet normal 0 0 1
    outer loop
      vertex 21.0115 -9.35494 2
      vertex 12.1353 -8.81678 2
      vertex 18.6074 -13.5191 2
    endloop
  endfacet
  facet normal 0 0 1
    outer loop
      vertex 12.1353 -8.81678 2
      vertex 10.037 -11.1472 2
      vertex 18.6074 -13.5191 2
    endloop
  endfacet
  facet normal 0 0 1
    outer loop
      vertex 18.6074 -13.5191 2
      vertex 7.5 -12.9904 2
      vertex 15.39 -17.0923 2
    endloop
  endfacet
  facet normal 0 0 1
    outer loop
      vertex 15.39 -17.0923 2
      vertex 4.63525 -14.2658 2
      vertex 11.5 -19.9186 2
    endloop
  endfacet
  facet normal 0 0 1
    outer loop
      vertex 4.63525 -14.2658 2
      vertex 1.56793 -14.9178 2
      vertex 11.5 -19.9186 2
    endloop
  endfacet
  facet normal 0 0 1
    outer loop
      vertex 11.5 -19.9186 2
      vertex -1.56793 -14.9178 2
      vertex 7.10739 -21.8743 2
    endloop
  endfacet
  facet normal 0 0 1
    outer loop
      vertex -1.56793 -14.9178 2
      vertex -4.63525 -14.2658 2
      vertex 7.10739 -21.8743 2
    endloop
  endfacet
  facet normal 0 0 1
    outer loop
      vertex -4.63525 -14.2658 2
      vertex -7.5 -12.9904 2
      vertex 7.10739 -21.8743 2
    endloop
  endfacet
  facet normal 0 0 1
    outer loop
      vertex -10.037 -11.1472 2
      vertex -12.1353 -8.81678 2
      vertex -22.4974 -4.78197 2
    endloop
  endfacet
  facet normal 0 0 1
    outer loop
      vertex 12.1353 8.81678 2
      vertex 13.7032 6.10105 2
      vertex 21.0115 9.35494 2
    endloop
  endfacet
  facet normal 0 0 1
    outer loop
      vertex -14.6722 -3.11867 2
      vertex -15 0 2
      vertex -22.4974 -4.78197 2
    endloop
  endfacet
endsolid OpenSCAD_Model
